<svg xmlns="http://www.w3.org/2000/svg" xmlns:xlink="http://www.w3.org/1999/xlink" width="84px" height="64px" viewBox="0 0 197 64">
					<g id="Artboard" stroke="none" stroke-width="1" fill="none" fill-rule="evenodd">
						<g id="Group-2" transform="translate(0.000000, 1.000000)" fill-rule="nonzero">
							<g id="Group" transform="translate(5.235739, 0.000000)" fill="#EA4335">
								<path d="M25.4890541,31.2436192 L46.3660283,19.1899688 C51.279249,16.3536949 52.9625544,10.0708486 50.1258693,5.15803899 C47.2891843,0.24502381 41.0073658,-1.43889822 36.0937339,1.39819795 L0.0193223475,22.2258385 L25.4890541,31.2436192 Z" id="Path"/>
							</g>
							<g id="Group" transform="translate(0.000000, 20.826284)" fill="#4285F4">
								<path d="M46.4558567,41.3966905 C50.0062352,41.3966905 53.4587687,39.5540786 55.3616088,36.2587961 C58.1982939,31.3457809 56.5149885,25.0629347 51.6017678,22.2266607 L15.5273562,1.39943129 C10.6137243,-1.43889822 4.33190585,0.246462709 1.4952208,5.15947789 C-1.34146425,10.0729042 0.341841105,16.3551338 5.25506184,19.1916133 L41.3294734,40.0186372 C42.9470006,40.9528932 44.7135565,41.3966905 46.4558567,41.3966905" id="Path"/>
							</g>
							<g id="Group" transform="translate(71.857344, 30.813060)" fill="#FBBC04">
								<path d="M10.4834013,31.4101203 C12.2261126,31.4101203 13.9918462,30.9663229 15.6097845,30.0320669 L51.683785,9.205043 L26.5380109,0 L5.33749015,12.2400904 C0.424269417,15.0763644 -1.25903594,21.3592107 1.57764911,26.2722258 C3.48028367,29.5675083 6.93322827,31.4101203 10.4834013,31.4101203" id="Path"/>
							</g>
							<g id="Group" transform="translate(71.939566, 0.000534)" fill="#0F9D58">
								<path d="M46.4558567,41.3954572 C50.0062352,41.3954572 53.4587687,39.5534619 55.3616088,36.2575628 C58.1982939,31.3445476 56.5149885,25.062318 51.6015622,22.2252218 L15.5275618,1.39758128 C10.614341,-1.43889822 4.33252253,0.243996026 1.49542636,5.15742232 C-1.34125869,10.0702319 0.342252218,16.3524615 5.2552674,19.1895577 L41.3294734,40.0174038 C42.9470006,40.9508376 44.7133509,41.3954572 46.4558567,41.3954572" id="Path"/>
							</g>
						</g>
					</g>
				</svg>